<?xml version="1.0" encoding="UTF-8"?>
<svg viewBox="0 0 744.09 1052.4" xmlns="http://www.w3.org/2000/svg" xmlns:xlink="http://www.w3.org/1999/xlink">
 <defs>
  <linearGradient id="x" x1="1e-6" y1=".5" y2=".5" xlink:href="#a"/>
  <linearGradient id="t" x1=".46607" x2=".44251" y1="1.4731" xlink:href="#a"/>
  <linearGradient id="u" x1="-.2749" x2=".86377" y1=".65814" y2=".82236" xlink:href="#a"/>
  <linearGradient id="ab" x1=".81724" x2=".32649" y1=".26538" y2=".13376" xlink:href="#v"/>
  <linearGradient id="ac" x1=".202" x2=".72745" y1=".24994" y2=".13225" xlink:href="#v"/>
  <linearGradient id="a">
   <stop stop-color="#fff" offset="0"/>
   <stop stop-color="#000200" offset="1"/>
  </linearGradient>
  <linearGradient id="v">
   <stop stop-color="#fffff2" offset="0"/>
   <stop stop-color="#f2f2f2" stop-opacity="0" offset="1"/>
  </linearGradient>
  <linearGradient id="w">
   <stop stop-color="#fff" offset="0"/>
   <stop stop-opacity=".896" offset="1"/>
  </linearGradient>
  <radialGradient id="aj" cx="545.88" cy="460.04" r="117.4" gradientTransform="matrix(-1.289 -.10502 -.19094 2.3435 1598.3 -563.74)" gradientUnits="userSpaceOnUse" xlink:href="#a"/>
  <radialGradient id="ai" cx="442.26" cy="490.09" r="133.17" gradientTransform="matrix(-1.7437 -.026372 -.018662 1.127 1686.5 -17.619)" gradientUnits="userSpaceOnUse" xlink:href="#v"/>
  <radialGradient id="aa" cx="-25.297" cy="781.09" r="25.956" gradientTransform="matrix(1 0 0 1.0006 -1.2627 36.653)" gradientUnits="userSpaceOnUse" xlink:href="#a"/>
  <radialGradient id="ad" cx="507.58" cy="420.22" r="133.17" gradientTransform="matrix(.53803 .9925 -1.3683 .74174 186.69 -342.13)" gradientUnits="userSpaceOnUse" xlink:href="#a"/>
  <radialGradient id="ah" cx="507.58" cy="420.22" r="133.17" gradientTransform="matrix(-1.1277 -.054198 -.074718 1.5546 1450.8 -206.68)" gradientUnits="userSpaceOnUse" xlink:href="#a"/>
  <radialGradient id="z" cx="304.31" cy="768.38" r="19.109" gradientTransform="matrix(.55985 -4.1189e-7 1.929e-7 .85594 -152.25 128.56)" gradientUnits="userSpaceOnUse" xlink:href="#a"/>
  <radialGradient id="y" cx="-39.186" cy="828.31" r="25.703" gradientTransform="matrix(1.4913 -.01965 .013184 1.0005 8.3303 -1.1955)" gradientUnits="userSpaceOnUse">
   <stop stop-color="#fff" stop-opacity=".983" offset="0"/>
   <stop stop-color="#000200" offset="1"/>
  </radialGradient>
  <radialGradient id="ae" cx="442.26" cy="490.09" r="133.17" gradientTransform="matrix(.78022 1.5596 -1.0074 .50574 -85.905 -472.48)" gradientUnits="userSpaceOnUse" xlink:href="#v"/>
  <radialGradient id="af" cx="545.88" cy="460.04" r="117.4" gradientTransform="matrix(1.2925 -.04302 .078214 2.3499 -715.67 -481.82)" gradientUnits="userSpaceOnUse" xlink:href="#a"/>
  <radialGradient id="ag" cx="43.437" cy="431.62" r="10.102" gradientTransform="matrix(1 0 0 1.15 0 -64.744)" gradientUnits="userSpaceOnUse" xlink:href="#w"/>
  <radialGradient id="ak" x1="1" cx="43.437" cy="431.62" r="10.102" gradientTransform="matrix(1 0 0 1.15 0 -64.744)" gradientUnits="userSpaceOnUse" xlink:href="#w"/>
 </defs>
 <g transform="matrix(-.12698 .4118 -.70075 -.19258 912.36 666.79)" stroke-width=".458">
  <path d="m103.66 800.69c-30.221 0-54.62 18.886-55.312 42.562h17.094c0.85973-15.324 21.144-27.469 46.219-27.469h81.719c25.074 0 45.358 12.145 46.219 27.469h17.125c-0.69324-23.676-25.092-42.562-55.312-42.562h-97.75z" fill="url(#t)"/>
  <path d="m106.16 801.95c-29.249-2.7559-56.38 20.854-57.054 41.3l16.365-0.7576c3.6137-12.222 0.7412-15.891 17.656-27.508 24.934-17.124 43.58 6.566 107.98-6.8185 26.491-6.0333 48.135 21.852 48.971 35.084h16.648c-0.67392-20.445-22.372-38.522-51.75-38.522 0 0-26.84 0.75763-98.813-2.7779z" fill="url(#u)"/>
 </g>
 <g transform="matrix(.61264 -.12071 .12071 .61264 233.48 43.359)">
  <g stroke-width=".505">
   <path d="m-24.019 757.14c-14.194 0-25.719 11.524-25.719 25.719 0 14.194 11.524 25.719 25.719 25.719 14.194 0 25.688-11.524 25.688-25.719 0-14.194-11.493-25.719-25.688-25.719zm-0.1562 7.0938c10.348 0 18.75 8.4021 18.75 18.75s-8.4021 18.75-18.75 18.75-18.719-8.4022-18.719-18.75 8.3709-18.75 18.719-18.75z" fill="url(#aa)" stroke="#000"/>
   <path d="m-24.019 757.14c-14.194 0-25.707 13.882-23.951 27.486 1.1418 8.8441 5.6465 21.379 25.214 23.446 14.304 1.5107 24.425-11.019 24.425-25.214 0-14.194-11.493-25.719-25.688-25.719zm-0.1562 7.0938c10.348 0 19.195 8.4117 18.75 18.75-1.0102 23.48-9.6776 25.346-18.498 21.528-14.213-6.1534-18.719-11.433-19.981-21.023-1.3508-10.259 9.381-19.255 19.729-19.255z" fill="url(#y)"/>
  </g>
  <g stroke="#000">
   <rect x="-32.005" y="752.66" width="13.763" height="16.289" fill="url(#x)" stroke-width=".8"/>
   <path d="m-15.78 771.21c-5.2207 6.0593-4.8365 13.356-9.683 13.356-4.8466 0-1.8943-5.2521-8.9493-13.502-3.4196-3.9989 3.9899-3.2789 8.8364-3.2789s14.996-2.6101 9.7959 3.4249z" fill="url(#z)" stroke-width=".602"/>
  </g>
 </g>
 <g fill-rule="evenodd">
  <path d="m276.56 281.18c-48.948-35.687-103.08-16.867-130.06 34.825-10.256 19.091-14.168 15.026-31.63 12.534-8.5488-1.2199-0.44461 15.07 1.7705 22.577 2.5608 8.6784 10.924 17.968 15.461 25.795 16.239 28.011 53.46 65.109 83.562 77.712 4.2156 1.7649 4.9619 0.68173 12.75-10.411-1.2294-0.89798-5.2765 0.08963-6.5291-0.86792s0.2892-3.8602-0.98064-4.8734c-1.2698-1.0131-4.2638 1.9219-5.5449 0.85715s-0.84938-6.1294-2.1358-7.2418c-1.2864-1.1125-4.6823 0.89517-5.9682-0.26099s-0.4617-5.4761-1.741-6.6721-4.619 0.95096-5.8859-0.28079c-1.2668-1.2318-0.46085-5.8421-1.7093-7.1057s-4.4651 1.2572-5.6891-0.034271c-1.2241-1.2915-0.4556-6.3952-1.6494-7.7107s-4.8736 0.80609-6.0312-0.5293 0.20724-6.1278-0.90813-7.4792-5.7154 0.25415-6.7827-1.1094c-1.0672-1.3635 1.3983-5.696 0.3851-7.0676 0.64447 0.12012-4.9846 1.7062-5.9378 0.33044s0.36912-7.5133-0.51816-8.8893c-8.978-15.738-9.3503-20.273-9.6093-37.925 0.32997-45.079 70.11-85.04 96.518-41.71 4.3038 6.6409 11.645 14.206 20.376 12.266 9.9292-2.2064 15.273-4.2702 14.763-13.823-0.72076-13.502-7.4892-16.804-16.278-22.906z" fill="url(#ad)" stroke="#000"/>
  <path d="m274.2 287.88c-45.28-32.921-103.88-21.528-124.1 31.345-9.5532 17.702-9.7009 15.171-25.879 12.907-7.9205-1.1083-0.44956 13.955 1.5849 20.9 2.3519 8.0291 10.08 16.61 14.266 23.846 14.981 25.895 49.388 60.153 77.258 71.747 3.9029 1.6237-4.8704 7.9394 2.376-2.3505-2.2746-1.6568-6.3013-1.9702-8.5634-3.8832-2.262-1.913-2.7594-5.4258-4.9897-7.5535-2.2303-2.1278-5.5405-1.8627-7.7199-4.1636-2.1795-2.3009-3.2282-7.1677-5.3377-9.6002-2.1094-2.4325-7.2455-3.1798-9.2658-5.7024s-1.9757-6.3862-3.8876-8.9573c-1.912-2.5711-7.3951-5.1228-9.1797-7.7009-1.7845-2.5781 0.21904-5.8823-1.4189-8.4259-8.2823-14.55-12.753-23.855-12.949-40.199 0.41789-41.74 63.262-92.853 101.91-47.419 3.9726 6.1382 13.489 17.414 21.586 15.596 9.2085-2.0676 9.793-0.37265 9.3441-9.2168-0.63449-12.499-6.8997-15.54-15.03-21.169z" fill="url(#ae)"/>
  <path d="m265.13 307.57c6.3257 13.961-5.1155 17.141 26.822 6.037 23.469-8.1596 47.162 4.4717 56.702 22.559 12.391 23.492 13.39 52.742-4.8995 76.32-14.868 19.166-40.589 25.175-64.04 27.25-16.074 1.4227-23.211 21.753-18.583 36.716 3.5445 11.46 1.37 27.582 13.22 34.255 12.833 7.2261 30.218-1.5666 44.04-3.5089 22.798-3.2035 26.058-5.0876 26.481-18.063 0.69992-21.488-8.231-27.341 13.616-48.081 16.87-16.014 22.978-41.184 22.7-65.5-6.4571-63.643-37.263-93.576-103.04-87.243-15.655 2.1056-24.149-5.3016-13.021 19.258z" fill="url(#af)" stroke="#000"/>
  <path d="m269.64 309.31c5.5163 15.145 6.0254 3.2288 20.376-0.49152 23.429-6.0739 49.826 4.2901 62.039 26.85 26.913 66.211 0.86484 96.968-67.745 111.26-19.607 8.6386-18.257 10.674-13.508 29.737 2.7152 10.898-5.0479 23.844 6.4313 30.011 12.432 6.6789 30.149-1.1919 43.61-3.1131 22.202-3.1688 16.986-8.446 17.492-20.61 0.83771-20.144-27.09-11.445 3.9646-38.162 22.152-19.058 33.312-35.002 31.769-76.309-1.0469-28.038-14.562-48.474-18.668-54.19-14.573-20.285-49.574-26.437-70.233-22.382-15.078 2.9603-27.013-14.139-15.527 17.394z" fill="url(#ab)" stroke-width=".955"/>
 </g>
 <g stroke-width=".8">
  <g fill="#fff">
   <path d="m283.09 300.92a7.1168 7.1168 0 1 1 -14.234 2.8046 7.1168 7.1168 0 1 1 14.234 -2.8046z"/>
   <path d="m337.22 490.83a7.1168 7.1168 0 1 1 -14.234 2.8046 7.1168 7.1168 0 1 1 14.234 -2.8046z"/>
   <path d="m290.08 496.26a7.1168 7.1168 0 1 1 -14.234 2.8046 7.1168 7.1168 0 1 1 14.234 -2.8046z"/>
   <path d="m292 473.38a7.1168 7.1168 0 1 1 -14.234 2.8046 7.1168 7.1168 0 1 1 14.234 -2.8046z"/>
  </g>
  <path d="m337.67 463.74a7.1168 7.1168 0 1 1 -14.234 2.8045 7.1168 7.1168 0 1 1 14.234 -2.8045z" fill="url(#ag)"/>
 </g>
 <g transform="matrix(.41829 .10363 -.15287 .71047 387.31 -2.4533)" stroke-width=".458">
  <path d="m103.66 800.69c-30.221 0-54.62 18.886-55.312 42.562h17.094c0.85973-15.324 21.144-27.469 46.219-27.469h81.719c25.074 0 45.358 12.145 46.219 27.469h17.125c-0.69324-23.676-25.092-42.562-55.312-42.562h-97.75z" fill="url(#t)"/>
  <path d="m106.16 801.95c-29.249-2.7559-56.38 20.854-57.054 41.3l16.365-0.7576c3.6137-12.222 0.7412-15.891 17.656-27.508 24.934-17.124 43.58 6.566 107.98-6.8185 26.491-6.0333 48.135 21.852 48.971 35.084h16.648c-0.67392-20.445-22.372-38.522-51.75-38.522 0 0-26.84 0.75763-98.813-2.7779z" fill="url(#u)"/>
 </g>
 <g transform="matrix(.37926 -.2046 .36464 .62862 18.506 99.666)" stroke-width=".458">
  <path d="m103.66 800.69c-30.221 0-54.62 18.886-55.312 42.562h17.094c0.85973-15.324 21.144-27.469 46.219-27.469h81.719c25.074 0 45.358 12.145 46.219 27.469h17.125c-0.69324-23.676-25.092-42.562-55.312-42.562h-97.75z" fill="url(#t)"/>
  <path d="m106.16 801.95c-29.249-2.7559-56.38 20.854-57.054 41.3l16.365-0.7576c3.6137-12.222 0.7412-15.891 17.656-27.508 24.934-17.124 43.58 6.566 107.98-6.8185 26.491-6.0333 48.135 21.852 48.971 35.084h16.648c-0.67392-20.445-22.372-38.522-51.75-38.522 0 0-26.84 0.75763-98.813-2.7779z" fill="url(#u)"/>
 </g>
 <g transform="matrix(.63113 .40559 -.41499 .61684 541.97 -33.576)">
  <g stroke-width=".505">
   <path d="m308.84 744.29c-14.194 0-25.719 11.524-25.719 25.719 0 14.194 11.524 25.719 25.719 25.719 14.194 0 25.688-11.524 25.688-25.719 0-14.194-11.493-25.719-25.688-25.719zm-0.1562 7.0938c10.348 0 18.75 8.4021 18.75 18.75s-8.4021 18.75-18.75 18.75-18.719-8.4022-18.719-18.75 8.3709-18.75 18.719-18.75z" fill="url(#aa)" stroke="#000"/>
   <path d="m308.84 744.29c-14.194 0-25.707 13.882-23.951 27.486 1.1418 8.8441 5.6465 21.379 25.214 23.446 14.304 1.5107 24.425-11.019 24.425-25.214 0-14.194-11.493-25.719-25.688-25.719zm-0.1562 7.0938c10.348 0 19.195 8.4117 18.75 18.75-1.0101 23.48-9.6776 25.346-18.498 21.528-14.213-6.1534-18.719-11.433-19.981-21.023-1.3508-10.259 9.381-19.255 19.729-19.255z" fill="url(#y)"/>
  </g>
  <g stroke="#000">
   <rect x="300.85" y="739.81" width="13.763" height="16.289" fill="url(#x)" stroke-width=".8"/>
   <path d="m317.08 758.35c-5.2207 6.0593-4.8365 13.356-9.683 13.356-4.8466 0-1.8943-5.2521-8.9493-13.502-3.4196-3.9989 3.9899-3.2789 8.8364-3.2789s14.996-2.6101 9.7959 3.4249z" fill="url(#z)" stroke-width=".602"/>
  </g>
 </g>
 <g transform="matrix(.63113 .40559 -.41499 .61684 541.97 -33.576)">
  <g fill-rule="evenodd">
   <path d="m338.48 387.83c92.75 28.442 120.63 115.89 80.309 200.11-14.612 31.481-5.644 32.589 14.323 52.572 9.7752 9.7827-18.884 15.046-30.632 19.419-13.581 5.055-33.518 3.2624-47.907 4.9667-51.493 6.0992-134.79-5.9599-179.85-32.428-6.3111-3.7066-5.64-5.7034 1.0922-26.339 37.308 11.405 87.92 19.531 129.77 16.575 28.791-3.6134 36.068-6.837 58.936-23.462 57.448-43.726 41.623-171.53-39.268-163.75-12.644 0.86432-29.39-1.2756-35.291-14.327-6.7108-14.843-9.1994-23.673 3.532-32.196 17.993-12.046 28.727-6.5452 44.989-1.1452z" fill="url(#ah)" stroke="#000"/>
   <path d="m332.16 397.29c85.682 26.398 127.37 112.43 79.046 189.13-13.507 29.246-10.122 27.004 8.3205 45.561 9.0287 9.0849-17.45 13.981-28.304 18.046-12.548 4.6991-30.967 3.0388-44.261 4.6254-47.574 5.678-124.52-5.5035-166.15-30.079-5.8298-3.4415-5.2093-5.2966 1.0154-24.467 34.465 10.585 78.67 29.123 117.33 26.367 26.6-3.3635 43.462-6.8837 64.594-22.332 53.085-40.631 60.073-166.4-35.269-172.28-11.682 0.80597-35.273-0.55682-40.721-12.679-6.1964-13.786-8.9298-12.907 2.8345-20.828 16.626-11.194 26.542-6.0868 41.565-1.0747z" fill="url(#ai)"/>
   <path d="m333.05 413.8c-6.7578 23.599 12.112 25.961-41.084 15.836-39.09-7.4403-73.675 18.112-84.561 48.999-14.139 40.116-8.8828 86.692 25.607 119.77 28.037 26.89 70.192 30.395 107.83 28.201 25.8-1.5043 41.86 29.038 38.026 53.826-2.9361 18.986 4.2786 44.02-12.936 57.362-18.642 14.449-48.241 4.5832-70.595 4.7378-36.869 0.25507-42.475-1.9677-46.178-22.426-6.1329-33.88 6.6481-45.242-32.814-72.993-30.472-21.428-46.035-59.877-51.279-98.466-4.6504-102.34 37.159-156.97 142.85-162.32 25.296-0.32434 37.02-14.046 25.133 27.466z" fill="url(#aj)" stroke="#000"/>
   <path d="m326.32 417.61c-5.1986 25.284-8.7915 6.5243-32.398 3.9854-38.54-4.145-77.938 18.447-92.013 57.046-27.158 111.19 21.302 153.83 133.35 160.44 33.084 9.1019 31.422 12.642 28.354 43.955-1.7538 17.901 13.573 36.597-3.1724 49.052-18.134 13.488-48.045 5.161-69.821 5.2644-35.917 0.17065-28.886-9.4098-32.532-28.563-6.0371-31.719 40.244-24.466-15.204-59.536-39.553-25.016-60.961-47.666-68.176-113.47-4.8971-44.667 11.738-80.204 16.907-90.22 18.345-35.546 72.362-53.476 106.04-51.882 24.581 1.1647 39.491-28.716 28.668 23.927z" fill="url(#ac)" stroke-width=".955"/>
  </g>
  <path d="m303.04 407.46a11.603 11.603 0 1 1 23.207 1.1154 11.603 11.603 0 1 1 -23.207 -1.1154z" fill="url(#ak)" stroke-width=".8"/>
 </g>
 <g stroke-width=".8">
  <g stroke="#000">
   <path d="m447.69 482.22l-2.7209 7.1637-4.2894 7.5757c-3.1708 0.50101-8.7457 2.7538-10.648 5.5817-3.5997 5.3506-2.0771 12.553 3.3975 16.071 5.4746 3.5182 12.844 2.03 16.444-3.3206 1.7798-2.6454 1.8027-8.5786 1.2199-11.459l4.7828-7.3492 5.4297-5.6714-13.615-8.5919z" fill="#fff"/>
   <path d="m444.27 511.86a4.3432 4.2449 0 1 1 -8.6864 -5.5823 4.3432 4.2449 0 1 1 8.6864 5.5823z"/>
  </g>
  <g fill="#fff">
   <path d="m488.12 520.28a7.3317 7.1657 0 1 1 -14.663 -9.4233 7.3317 7.1657 0 1 1 14.663 9.4233z"/>
   <path d="m480.38 534.42c-3.6646-4.4891-8.3258-1.8462-13.265-1.7782-15.597 0.21478-7.6492-2.3669-13.756-7.8908-1.9395-1.7542-8.0543-2.5204-10.689 3.3428-2.6344 5.8633 1.9056 10.33 4.2674 10.545 7.7581 0.70496 11.613-4.4195 19.398 4.3416 8.8027 9.9066 16.691-5.3184 14.045-8.5602z" stroke="#000"/>
   <path d="m463.49 556.21a7.3317 7.1657 0 1 1 -14.663 -9.4233 7.3317 7.1657 0 1 1 14.663 9.4233z"/>
   <path d="m422.57 528.13a7.3317 7.1657 0 1 1 -14.663 -9.4233 7.3317 7.1657 0 1 1 14.663 9.4233z"/>
   <path d="m477.4 535.62s-12.621-1.5817-14.768-1.9178c-11.061-1.7324-6.6184-3.1575-11.062-7.1203-1.411-1.2584-5.4711-1.6768-7.2671 2.402-1.796 4.0789 2.6153 7.8402 4.3158 7.8424 9.1456 0.012085 8.9574-3.6444 19.546 3.5097 2.3893 1.6144 7.799-2.5809 9.2354-4.716z"/>
  </g>
 </g>
 <g transform="matrix(.37608 -.20989 -.25172 -.44124 538.36 1001.9)" stroke-width=".458">
  <path d="m103.66 800.69c-30.221 0-54.62 18.886-55.312 42.562h17.094c0.85973-15.324 21.144-27.469 46.219-27.469h81.719c25.074 0 45.358 12.145 46.219 27.469h17.125c-0.69324-23.676-25.092-42.562-55.312-42.562h-97.75z" fill="url(#t)"/>
  <path d="m106.16 801.95c-29.249-2.7559-56.38 20.854-57.054 41.3l16.365-0.7576c3.6137-12.222 0.7412-15.891 17.656-27.508 24.934-17.124 43.58 6.566 107.98-6.8185 26.491-6.0333 48.135 21.852 48.971 35.084h16.648c-0.67392-20.445-22.372-38.522-51.75-38.522 0 0-26.84 0.75763-98.813-2.7779z" fill="url(#u)"/>
 </g>
 <g transform="matrix(.41949 .097566 .11044 -.49584 165.25 1014.9)" stroke-width=".458">
  <path d="m103.66 800.69c-30.221 0-54.62 18.886-55.312 42.562h17.094c0.85973-15.324 21.144-27.469 46.219-27.469h81.719c25.074 0 45.358 12.145 46.219 27.469h17.125c-0.69324-23.676-25.092-42.562-55.312-42.562h-97.75z" fill="url(#t)"/>
  <path d="m106.16 801.95c-29.249-2.7559-56.38 20.854-57.054 41.3l16.365-0.7576c3.6137-12.222 0.7412-15.891 17.656-27.508 24.934-17.124 43.58 6.566 107.98-6.8185 26.491-6.0333 48.135 21.852 48.971 35.084h16.648c-0.67392-20.445-22.372-38.522-51.75-38.522 0 0-26.84 0.75763-98.813-2.7779z" fill="url(#u)"/>
 </g>
 <g transform="matrix(-.121 .41334 .48884 .13814 -91.022 387.79)" stroke-width=".458">
  <path d="m103.66 800.69c-30.221 0-54.62 18.886-55.312 42.562h17.094c0.85973-15.324 21.144-27.469 46.219-27.469h81.719c25.074 0 45.358 12.145 46.219 27.469h17.125c-0.69324-23.676-25.092-42.562-55.312-42.562h-97.75z" fill="url(#t)"/>
  <path d="m106.16 801.95c-29.249-2.7559-56.38 20.854-57.054 41.3l16.365-0.7576c3.6137-12.222 0.7412-15.891 17.656-27.508 24.934-17.124 43.58 6.566 107.98-6.8185 26.491-6.0333 48.135 21.852 48.971 35.084h16.648c-0.67392-20.445-22.372-38.522-51.75-38.522 0 0-26.84 0.75763-98.813-2.7779z" fill="url(#u)"/>
 </g>
</svg>
