<?xml version="1.0" encoding="UTF-8"?>
<svg viewBox="0 0 640 480" xmlns="http://www.w3.org/2000/svg">
 <g transform="rotate(-.085616 295.43 249.48)">
  <path d="m177.87 461.17c-29.351-6.691-52.978-20.835-69.188-41.417-17.821-22.629-24.688-46.536-23.13-80.521 0.9039-19.715 2.9849-28.949 10.53-46.725 6.8742-16.195 6.5202-12.7 4.1292-40.74-0.9788-11.487 0.069-17.735 3.756-22.387l3.031-3.823 1.285 8.964c0.70699 4.93 1.023 9.825 0.703 10.879-0.321 1.053 0.07 7.209 0.868 13.679l1.45 11.765-5.654 11.12c-10.055 19.776-11.725 28.141-11.618 58.177 0.106 29.601 3.8824 45.294 15.205 63.183 10.693 16.895 20.77 26.562 40.002 38.372 6.259 3.844 22.269 9.212 22.269 7.467 0-0.68402-1.387-1.656-3.083-2.16-1.695-0.504-4.848-2.046-7.006-3.426-2.158-1.381-7.082-4.498-10.941-6.926-13.177-8.294-23.247-17.49-33.341-30.451-11.006-14.132-17.163-26.694-20.132-41.078-2.5326-12.267-2.1738-17.427 0.5406-7.774 11.378 40.466 43.03 70.378 85.449 80.753 6.058 1.481 13.14 2.612 15.739 2.512 4.588-0.176 4.53-0.229-2.002-1.821-3.738-0.91101-5.966-2.014-5.015-2.481 0.94099-0.46298 9.769-0.862 19.618-0.88498 10.757-0.026001 21.937-0.90701 27.997-2.206 10.783-2.31 18.692-3.515 28.587-4.354 10.201-0.86502 12.982-3.495 6.642-6.283-1.896-0.83398-3.127-2.169-2.736-2.967 0.39002-0.798-0.022003-1.451-0.91699-1.451-1.949 0-3.626-4.682-1.932-5.395 0.65201-0.27402 1.205-1.559 1.229-2.855 0.024017-1.297 0.75601-0.289 1.627 2.239 1.881 5.459 4.795 5.969 8.083 1.414 3.006-4.164 4.922-8.946 4.033-10.068-0.39002-0.49103-2.138-0.893-3.884-0.893-3.673 0-4.256-2.142-0.88602-3.254 5.36-1.769 13.404 3.976 13.404 9.573 0 3.468-4.915 9.859-8.688 11.297-2.872 1.094-3.277 3.877-0.922 6.343 2.04 2.136 10.007-1.013 13.6-5.376 3.512-4.264 5.123-13.205 3.216-17.843-2.125-5.167-3.759-6.941-9.158-9.943l-4.754-2.645 4.754-2c2.615-1.1 5.615-2.962 6.666-4.138 1.21-1.353 3.36-1.925 5.854-1.558 2.551 0.37601 4.138-0.06601 4.499-1.252 0.77301-2.542 3.991-2.309 3.991 0.28802 0 1.167-0.48898 2.122-1.086 2.122-0.59698 0-0.78799 0.98001-0.423 2.179 0.51001 1.677 1.033 1.277 2.272-1.736 1.985-4.826 3.693-6.267 6.243-5.266 1.294 0.508 1.962 0.015015 1.962-1.446 0-1.646 1.162-2.217 4.512-2.217 3.781 0 4.684-0.573 5.577-3.536 0.65302-2.165 1.946-3.536 3.336-3.536 1.248 0 2.328-0.79501 2.399-1.768 0.070984-0.97202 0.24597-2.404 0.38998-3.182 0.143-0.77798 0.33701-3.561 0.431-6.184 0.142-3.978 0.43799-4.49 1.783-3.082 1.75 1.833 1.776 19.514 0.036011 24.702-0.643 1.917-0.52499 2.409 0.40302 1.685 0.72198-0.56299 1.312-1.664 1.312-2.448s1.218-3.452 2.707-5.928c2.982-4.96 7.296-19.859 7.535-26.026 0.11801-3.041 0.258-3.254 0.61899-0.93799 0.686 4.404-2.579 20.767-5.683 28.486-5.004 12.443-12.685 23.884-22.646 33.732-15.954 15.773-19.017 19.694-20.572 26.328-1.697 7.237-3.803 10.454-9.044 13.813-8.458 5.421-20.793 8.537-39.388 9.947-10.09 0.76599-21.877 2.321-26.193 3.456-10.09 2.653-38.448 2.605-50.251-0.085999zm8.212-8.189c0-0.298-1.262-0.84601-2.803-1.218-1.541-0.37201-2.803-0.12802-2.803 0.54199 0 0.66998 1.262 1.218 2.803 1.218s2.803-0.24399 2.803-0.54199zm110.46-24.372c1.569-1.297 3.352-3.535 3.962-4.973 0.91-2.146 0.37201-1.983-3.004 0.90701-2.263 1.937-4.674 3.542-5.359 3.567-0.685 0.024994-2.254 1.057-3.487 2.294-2.146 2.152-2.086 2.212 1.397 1.406 2.001-0.46402 4.922-1.904 6.491-3.201zm-8.485-16.016c0.63998-1.508 0.732-3.079 0.20499-3.49-1.495-1.166-5.091 2.779-4.197 4.604 1.178 2.405 2.677 1.987 3.992-1.114zm33.668-8.639c0-0.741 0.66898-1.347 1.486-1.347 0.81799 0 2.671-1.591 4.119-3.536 2.18-2.927 2.31-3.535 0.75601-3.535-1.032 0-1.877 0.742-1.877 1.65 0 0.90701-0.31299 1.254-0.69699 0.77002-0.383-0.483-2.18 0.992-3.993 3.279s-3.895 4.645-4.628 5.24c-0.732 0.595-2.341 2.625-3.574 4.511-1.943 2.972-1.533 2.822 3.083-1.129 2.929-2.506 5.325-5.163 5.325-5.903zm11.979-12.908c1.427-1.691 2.595-3.919 2.595-4.95s0.58801-1.875 1.308-1.875c0.71899 0 1.014-0.37 0.65601-0.82199-1.178-1.487-5.259 2.231-4.649 4.236 0.328 1.076 0.057007 2.377-0.60199 2.891-0.659 0.51297-1.205 0.099976-1.215-0.91803-0.011993-1.345-0.314-1.271-1.104 0.27002-2.529 4.938-0.75101 5.627 3.011 1.168zm-1.89-11.068c0-0.77802-0.504-1.414-1.121-1.414-0.616 0-1.121 0.63599-1.121 1.414 0 0.77798 0.505 1.414 1.121 1.414 0.617 0 1.121-0.63602 1.121-1.414zm-148.26 55.636c0.771-0.392 2.032-0.392 2.803 0 0.771 0.393 0.14 0.71399-1.401 0.71399-1.542 0-2.173-0.32098-1.402-0.71399zm77.5-15.523c2.085-1.147 4.607-1.664 5.605-1.147 1.569 0.81198 1.512 1.096-0.42798 2.102-1.233 0.63998-3.755 1.156-5.605 1.147l-3.363-0.016 3.791-2.086zm45.397-50.367c10.002-17.516 10.949-37.454 2.603-54.806-5.518-11.472-20.668-27.966-32.173-35.025-13.475-8.269-30.255-13.003-47.391-13.37-16.989-0.36301-20.128 0.228-42.292 7.959-4.924 1.717-19.22 8.714-24.103 11.795-8.414 5.311-20.404 15.764-23.988 20.915-3.843 5.522-11.325 24.967-11.325 29.434 0 4.053 4.728 19.404 7.572 24.584 3.095 5.639 3.857 7.453 3.13 7.453-1.36 0-8.441-15.562-10.589-23.273-1.749-6.278-2.195-11.02-1.977-21.055 0.241-11.161 0.77399-14.292 3.854-22.638 2.191-5.936 5.314-11.61 8.068-14.655 2.471-2.733 4.168-5.633 3.771-6.444-0.398-0.811-0.19699-1.065 0.44501-0.565 0.642 0.50101 1.855-0.16 2.695-1.467 1.315-2.046 1.294-2.203-0.153-1.127-1.434 1.065-1.462 0.90799-0.19099-1.07 0.819-1.275 3.341-3.64 5.605-5.254 3.757-2.68 3.894-2.696 1.577-0.185-1.395 1.512-3.161 3.031-3.923 3.375-0.763 0.34399-1.134 0.95999-0.826 1.371 0.308 0.41 3.979-1.842 8.157-5.004 4.372-3.308 7.068-6.161 6.352-6.72-0.82001-0.64002-0.62001-1.273 0.589-1.858 1.209-0.58502 1.564-0.336 1.04 0.733-0.922 1.883-1.718 2.161 18.054-6.303 8.015-3.431 18.355-7.396 22.977-8.811s7.744-2.849 6.939-3.188c-0.806-0.33899-3.766 0.115-6.578 1.008-2.813 0.894-5.345 1.333-5.628 0.976-0.80899-1.021 16.245-5.486 17.849-4.673 0.78899 0.401 0.21599 0.778-1.274 0.84-1.49 0.061005-2.407 0.49301-2.037 0.959 0.369 0.466 2.85 0.36 5.512-0.23599 4.4-0.98601 4.585-1.184 2.037-2.189-2.33-0.91901-2.046-1.086 1.682-0.989 2.466 0.063995 5.24-0.29001 6.165-0.78601s9.814-1.429 19.754-2.073c19.86-1.288 24.638-3.164 26.676-10.477 0.849-3.044 0.474-4.809-2.037-9.597-2.86-5.452-3.217-5.708-5.046-3.62-2.119 2.419-8.663 2.984-11.188 0.966-1.218-0.97301-1.037-1.444 0.84-2.195 2.716-1.088 2.981-2.286 1.045-4.727-1.046-1.32-0.89099-1.697 0.698-1.697 1.654 0 1.787-0.38899 0.70001-2.043-1.687-2.563-6.732-0.117-6.867 3.33-0.061996 1.581-0.263 1.7-0.676 0.399-0.938-2.955 2.807-7.005 7.055-7.631 3.596-0.52901 4.385 0.11099 9.846 7.989 3.266 4.709 6.52 9.953 7.232 11.653 1.83 4.366 1.614 19.608-0.34601 24.389-1.993 4.863-5.117 6.919-4.264 2.806 0.48999-2.363 0.203-2.57-2.089-1.508-1.461 0.67799-2.808 2.499-2.993 4.047-0.314 2.633-1.544 2.881-19.058 3.832-10.296 0.56-20.235 1.294-22.084 1.632-1.85 0.339-5.381 0.68399-7.848 0.76799-2.466 0.085007-5.367 0.741-6.446 1.46-1.466 0.97699-1.961 0.758-1.961-0.86502 0-1.194-0.48901-2.171-1.086-2.171-0.59799 0-0.79599 0.955-0.44099 2.122 0.355 1.166 0.087006 2.121-0.59599 2.121-0.68201 0-1.241-0.939-1.241-2.086 0-1.589-0.86699-1.879-3.643-1.215-6.431 1.536-22.24 7.538-30.437 11.555-7.991 3.915-19.934 12.815-19.201 14.31 0.215 0.44-3.895 4.822-9.134 9.74-5.238 4.917-9.289 9.236-9.002 9.599 0.28799 0.36301 3.862-1.656 7.944-4.486 4.082-2.831 7.421-4.727 7.421-4.214 0 0.51401 1.387-0.30698 3.083-1.824s5.605-3.827 8.688-5.135c3.083-1.307 6.614-3.19 7.847-4.184 5.213-4.2 43.216-17.383 54.059-18.752 3.836-0.48401 6.728-1.383 6.427-1.997-0.29999-0.61298 0.044006-1.576 0.76601-2.139 0.847-0.66 1.012-0.40802 0.464 0.70898-0.64401 1.315 0.804 1.611 5.993 1.23 3.762-0.27701 6.841-0.003998 6.841 0.607 0 0.61099 2.06 1.111 4.578 1.111 2.517 0 8.61 1.299 13.539 2.886 21.33 6.871 36.503 17.6 48.601 34.365 6.383 8.847 7.685 11.636 10.284 22.037 2.647 10.595 2.842 12.712 1.765 19.188-1.722 10.357-5.165 18.793-10.831 26.538-5.108 6.983-9.254 9.486-5.856 3.536zm-172.64-65.487c0.383-1.258 0.19499-1.826-0.44-1.33-0.61 0.47501-1.109 1.463-1.109 2.195 0 2.034 0.804 1.586 1.549-0.86499zm35.446-39.637l2.802-2.13-2.802 0.925c-1.542 0.509-3.282 1.49-3.868 2.181-1.712 2.018 0.744 1.399 3.868-0.97601zm22.421-9.268c7.707-2.918 13.302-5.344 12.432-5.39-2.146-0.11301-28.176 9.67-30.329 11.399-1.931 1.55-3.104 1.944 17.897-6.009zm79.033-13.959c0.38202-0.778-0.062988-1.414-0.98798-1.414-0.92502 0-1.994 0.636-2.375 1.414-0.38101 0.778 0.063995 1.414 0.98898 1.414 0.92502 0 1.993-0.636 2.374-1.414zm1.061-3.702c0.992-0.481 2.333-2.12 2.979-3.643 1.088-2.563 0.992-2.63-1.289-0.894-1.355 1.031-3.537 2.661-4.849 3.622-1.881 1.377-1.99 1.751-0.51599 1.768 1.029 0.011002 2.683-0.373 3.675-0.853zm-5.693-24.888c-0.29999-0.61101-1.271-1.111-2.16-1.111-0.888 0-1.615 0.5-1.615 1.111 0 0.612 0.97198 1.112 2.159 1.112 1.188 0 1.915-0.5 1.616-1.112zm76.099 154.86c-1.683-0.759-1.888-4.639-0.245-4.639 1.156 0 2.855 3.963 2.065 4.817-0.23001 0.24899-1.049 0.16898-1.82-0.17801zm1.122-5.008c-0.60101-0.96402-1.424-3.503-1.829-5.642-0.67801-3.576-0.47-3.89 2.58-3.89 3.007 0 3.358-0.495 3.757-5.303l0.439-5.304 0.189 6.011c0.103 3.306-0.31598 6.011-0.93298 6.011-0.616 0-1.121 1.872-1.121 4.159 0 4.706-1.451 6.57-3.082 3.958zm-219.73-100.99c-2.02-1.028-1.722-2.987 0.596-3.915 3.061-1.226 3.029-7.704-0.043999-9.199-2.318-1.128-2.353-1.305-0.45-2.273 1.224-0.62201 3.62-0.11301 5.886 1.25 3.121 1.878 3.821 3.094 3.821 6.637 0 3.614-0.649 4.681-3.887 6.388-2.138 1.127-4.03 1.999-4.204 1.937-0.174-0.061005-0.947-0.43201-1.718-0.82498zm62.802-11.232c0.373-0.47 1.34-0.52 2.149-0.112 0.894 0.452 0.62801 0.78699-0.677 0.855-1.182 0.061005-1.844-0.273-1.472-0.743zm7.847-2.829c0.373-0.47 1.34-0.51999 2.149-0.11099 0.894 0.451 0.629 0.786-0.677 0.854-1.182 0.060989-1.844-0.27301-1.472-0.74301zm178.5-0.695c-28.432-2.647-53.306-13.427-71.586-31.024-13.88-13.362-24.567-19.737-38.738-23.11-3.775-0.899-3.798-0.873-1.782 1.937 1.123 1.567 1.695 3.286 1.271 3.821-0.42401 0.535-3.658-2.88-7.186-7.591-6.278-8.38-13.859-14.593-17.861-14.636-1.565-0.017014-1.67-0.291-0.47501-1.246 1.272-1.017 1.289-2.155 0.102-6.697-0.786-3.009-2.438-7.699-3.669-10.422-4.509-9.965-5.238-12.085-5.245-15.249-0.003998-1.775-0.696-5.308-1.538-7.851-1.286-3.882-2.398-4.873-6.946-6.186l-5.415-1.563-5.338 5.878c-4.964 5.465-9.339 8.624-25.84 18.652-3.516 2.138-6.291 4.287-6.165 4.777 0.125 0.49-1.16 2.781-2.855 5.092-1.696 2.31-3.083 5.034-3.083 6.053 0 2.289 3.091 10.122 5.19 13.152 1.379 1.991 1.012 2.445-3.218 3.98-8.455 3.068-9.419 3.292-7.694 1.787 0.90599-0.79001 1.255-2.381 0.829-3.781-0.69-2.268-0.925-2.262-3.807 0.104-1.689 1.387-3.686 3.525-4.437 4.75-0.786 1.283-1.38 1.531-1.401 0.586-0.056992-2.642 6.77-9.123 8.78-8.335 1.009 0.39601 2.515 0.18001 3.346-0.47899 1.056-0.836 0.286-1.489-2.546-2.159-3.911-0.926-11.858-8.23-11.858-10.899 0-0.71301-1.357-3.885-3.016-7.047-2.039-3.887-2.674-6.317-1.961-7.502 0.57901-0.963 3.474-6.318 6.433-11.899 5.158-9.73 7.414-12.719 5.938-7.868-0.513 1.687-0.21599 2.048 1.143 1.39 1.01-0.489 2.497-0.198 3.304 0.646 1.157 1.212 1.445 0.606 1.367-2.87-0.055008-2.423 0.44299-5.09 1.106-5.926 0.66301-0.83701 0.90701-2.503 0.54201-3.703-0.461-1.516-0.227-1.84 0.768-1.064 1.046 0.815 1.242 0.359 0.726-1.691-0.90001-3.576 0.12999-6.983 2.452-8.106 1.603-0.777 1.593-0.573-0.087006 1.77-3.491 4.866-2.018 6.658 1.744 2.123 2.004-2.416 5.409-5.428 7.567-6.693 7.748-4.544 10.089-6.634 10.073-8.9943-0.011002-1.4319-0.349-1.7985-0.841-0.9099-0.45299 0.8184-2.842 2.6472-5.308 4.0652-2.466 1.417-5.617 3.879-7.002 5.471s-2.88 2.438-3.322 1.88c-1.524-1.923 7.297-10.368 14.773-14.144 8.301-4.1926 13.206-3.6981 17.85 1.7993 1.726 2.0425 4.709 3.066 11.046 3.789l8.681 0.991 2.906-8.3271c1.598-4.5798 4.274-10.027 5.946-12.105 1.672-2.0781 4.475-7.1697 6.229-11.315 5.159-12.195 9.595-17.228 9.595-10.885 0 3.9055-3.838 11.696-7.604 15.433-2.44 2.4215-2.672 3.1667-1.321 4.2446 1.117 0.8913 1.192 1.3143 0.237 1.3291-0.771 0.011902-1.437 1.1354-1.48 2.4967-0.069 2.1582-0.18701 2.1249-0.92801-0.2597-1.447-4.6625-2.545-0.1365-3.525 14.529-0.50301 7.5146-1.266 16.65-1.697 20.3-0.73399 6.207-0.526 7.015 3.216 12.532 4.418 6.511 6.869 13.518 5.188 14.828-0.58 0.452-1.054-0.059006-1.054-1.136s-1.33-3.502-2.955-5.387l-2.955-3.429 1.37 3.316c1.266 3.066 1.186 3.242-1.065 2.341-2.173-0.87-2.303-0.66499-1.212 1.909 1.904 4.487 3.379 4.933 4.513 1.364 0.619-1.947 1.069-2.385 1.112-1.081 0.039001 1.206-0.467 2.871-1.125 3.701-0.847 1.068-0.524 2.901 1.105 6.28 1.265 2.625 3.106 9.341 4.09 14.926 1.023 5.796 2.699 11.19 3.905 12.568 2.143 2.446 15.421 7.043 16.481 5.706 0.31799-0.39999-1.382-1.128-3.776-1.617-2.711-0.554-5.108-2.164-6.353-4.264l-1.998-3.374 3.68 0.676 3.68 0.676-3.568-1.425c-2.999-1.198-3.553-2.099-3.473-5.652 0.053009-2.325 0.649-4.242 1.326-4.259 0.677-0.016998-0.029999-1.333-1.572-2.924-2.019-2.084-2.176-2.522-0.56-1.569 1.233 0.728 5.269 1.74 8.968 2.249 13.092 1.802 35.298 11.678 35.321 15.709 0.013 2.263 12.577 14.703 22.087 21.87 9.434 7.109 26.43 15.745 35.974 18.278 7.742 2.056 7.993 1.989 4.866-1.298-3.181-3.344-2.144-3.524 8.104-1.406 3.618 0.74699 10.076 1.47 14.352 1.606 6.432 0.205 7.661 0.617 7.123 2.389-0.569 1.868 1.241 2.042 14.234 1.364 9.183-0.478 13.168-0.323 10.401 0.40601-6.721 1.772-31.683 1.646-32.161-0.161-0.21799-0.828-2.152-1.701-4.297-1.939-2.145-0.23799-6.211-0.88899-9.037-1.448-4.167-0.823-5.139-0.616-5.139 1.095 0 5.075 38.766 7.142 57.333 3.057 9.729-2.14 27.993-9.001 27.068-10.167-0.26599-0.336-2.819 0.39101-5.673 1.613-8.795 3.767-8.412 2.319 0.49301-1.864 4.624-2.172 10.173-5.099 12.331-6.504 7.283-4.74 19.593-15.951 23.541-21.438l3.922-5.45-4.483 5.081c-7.38 8.367-14.286 13.763-12.223 9.551 0.5-1.02 0.30801-1.249-0.51199-0.61-0.72198 0.563-1.042 1.577-0.70999 2.254 0.75598 1.543-11.634 10.277-18.917 13.335-3.002 1.26-6.281 2.823-7.287 3.472-2.405 1.552-12.271 3.34-10.714 1.941 0.66098-0.59401 1.528-2.194 1.926-3.556 0.47598-1.626 1.912-2.475 4.189-2.475 2.043 0 3.178-0.58501 2.765-1.426-0.384-0.78401 0.46899-2.017 1.896-2.739s1.964-1.353 1.193-1.402c-1.527-0.098007-2.039-12.136-0.56-13.173 0.46201-0.32399 0.336-0.48599-0.28101-0.35899-0.616 0.12599-1.686 1.648-2.377 3.381-1.094 2.744-1.351 2.844-1.982 0.77-0.44498-1.466 0.039001-3.106 1.257-4.261 1.764-1.673 1.617-1.799-1.347-1.151-1.831 0.39999-3.848 1.219-4.484 1.82-0.63599 0.602-4.183 1.905-7.882 2.898-3.7 0.992-7.988 2.258-9.529 2.814-4.146 1.493-31.329 1.722-35.874 0.302-2.564-0.801 0.57398-0.98 9.056-0.51601 19.785 1.082 36.801-3.016 51.502-12.404 6.696-4.276 13.131-12.984 16.543-22.388 2.753-7.588 2.771-7.881 1.376-22.71-1.952-20.756-5.503-30.097-16.733-44.017-10.83-13.424-21.009-20.133-38.762-25.548-12.135-3.7011-28.294-4.8943-38.676-2.8559-16.161 3.1728-33.446 16.848-41.62 32.928-3.765 7.4064-3.782 7.5174-3.646 23.734 0.088013 10.438 0.76502 18.756 1.885 23.148 0.961 3.771 1.477 7.748 1.145 8.84-0.332 1.091-0.044983 1.984 0.63702 1.984 0.68298 0 1.115 0.51601 0.961 1.146-0.15402 0.63 1.473 4.038 3.616 7.572 4.527 7.467 14.773 15.196 29.124 21.968 11.298 5.332 10.693 6.184-0.86899 1.223-18.769-8.054-33.26-22.446-40.689-40.412l-3.794-9.176 0.061-22.102c0.048004-17.573 0.42001-22.793 1.815-25.478 0.96402-1.8575 2.1-5.3677 2.524-7.8006 0.423-2.4328 2.327-7.5151 4.231-11.294 1.904-3.7788 3.577-8.1435 3.718-9.6992 0.44898-4.9488 0.522-5.1338 1.664-4.2431 0.61697 0.4808 1.121-0.4363 1.121-2.038s-0.72699-2.9121-1.615-2.9121c-0.88901 0-1.924-0.6292-2.301-1.3982-0.40201-0.8224 0.147-1.0517 1.336-0.5567 1.111 0.4628 0.25601-0.585-1.9-2.3285-2.699-2.183-6.189-3.3564-11.21-3.7688-5.633-0.4627-6.845-0.2425-5.329 0.9682 2.654 2.1201 2.471 3.7149-0.841 7.3484-1.542 1.6909-2.803 3.8767-2.803 4.8573s-0.457 2.1397-1.016 2.5756c-0.55899 0.4359-0.737-0.6403-0.39499-2.3916 0.341-1.7514 0.215-2.7124-0.28201-2.1357-0.49701 0.5766-1.619 0.2993-2.493-0.6163-1.207-1.2634-1.784-1.268-2.396-0.0191-0.55298 1.1285-1.318 0.7123-2.437-1.3251-0.897-1.6337-2.261-3.8017-3.032-4.8176-0.771-1.016-1.401-2.4907-1.401-3.2772s-1.892-1.6796-4.204-1.9848c-2.358-0.3111-0.75803-0.6403 3.643-0.7495 5.81-0.1442 7.338 0.1795 5.886 1.2469-2.36 1.7336-2.56 5.9857-0.39002 8.2581 1.254 1.3133 2.053 0.7945 3.95-2.5667 2.245-3.9788 2.267-4.2939 0.38901-5.6729-3.151-2.3147 18.621-1.9837 22.145 0.3367 5.122 3.3724 7.875 3.5843 13.205 1.0164 2.894-1.3942 7.532-3.2838 10.307-4.199 17.68-5.8319 20.845-6.2836 44.281-6.3181 20.952-0.030899 24.707 0.3285 34.129 3.2666 30.703 9.574 55.495 29.297 67.761 53.906 2.293 4.6009 4.586 7.1416 8.098 8.9746 2.695 1.406 6.231 4.552 7.858 6.991 2.843 4.263 2.93 4.903 2.247 16.484-0.586 9.915-1.393 13.703-4.562 21.392-2.117 5.139-4.864 14.484-6.103 20.766-4.075 20.655-11.488 34.695-25.082 47.502-13.408 12.634-25.69 19.372-48.423 26.568-7.426 2.351-17.286 4.556-21.91 4.9-4.624 0.34399-10.173 0.78499-12.331 0.98-2.158 0.19499-8.464-0.068008-14.013-0.584zm28.493-7.841c0.25702-0.28-3.971-0.51-9.395-0.51-19.88 0-45.449-7.666-63.029-18.897-4.201-2.684-11.421-8.43-16.045-12.769-15.721-14.751-16.936-15.64-21.457-15.716-2.38-0.040009-4.327 0.028-4.327 0.15199 0 0.12401 2.648 1.886 5.885 3.915s9.669 7.559 14.293 12.288c16.909 17.293 43.328 30.125 66.703 32.399 9.229 0.898 26.251 0.362 27.372-0.862zm18.591-1.924c2.161-1.172 2.153-1.219-0.215-1.315-1.35-0.055008-2.767 0.537-3.149 1.315-0.819 1.673 0.27798 1.673 3.364 0zm35.312-26.165c1.542-1.112 2.299-2.021 1.682-2.021s-2.382 0.909-3.924 2.021c-1.541 1.112-2.298 2.021-1.681 2.021 0.616 0 2.382-0.90901 3.923-2.021zm-9.601-5.099c-0.94898-1.936-2.356-1.506-2.356 0.72101 0 1.093 0.66901 1.662 1.488 1.266 0.81799-0.396 1.209-1.29 0.86798-1.987zm6.449-26.275c-0.81-0.409-1.777-0.35901-2.149 0.11099-0.37302 0.47 0.289 0.804 1.471 0.74301 1.306-0.068008 1.572-0.403 0.67801-0.854zm-280.86-26.545c0.989-2.295 2.514-5.076 3.388-6.179 0.875-1.103 1.335-2.327 1.024-2.719-1.268-1.6-4.05 1.21-5.528 5.585-0.865 2.562-3.666 7.404-6.223 10.759-2.558 3.355-4.308 6.798-3.89 7.651 0.845 1.726 8.297-8.293 11.229-15.097zm-2.781 11.905c1.434-2.36 3.995-6.2 5.69-8.535 3.184-4.383 3.913-6.975 1.962-6.975-0.616 0-1.121 0.58501-1.121 1.301 0 0.715-2.522 4.782-5.605 9.038-3.083 4.255-5.605 8.125-5.605 8.6 0 2.167 2.305 0.478 4.679-3.429zm300.75-21.523c2.334-10.789 2.377-11.92 0.82199-21.777-1.334-8.456-2.029-10.397-3.727-10.397-1.148 0-2.087-0.869-2.087-1.931 0-4.736-8.237-22.111-13.86-29.238-10.364-13.133-22.459-20.724-38.385-24.089-4.252-0.8984-8.992-1.9184-10.534-2.2667-11.546-2.6088-38.073-1.2038-42.039 2.2267-0.616 0.5332-3.896 2.1444-7.287 3.5804s-6.645 3.1584-7.23 3.8277c-0.586 0.6692-1.895 1.2168-2.91 1.2168-1.014 0-2.757 1.2728-3.873 2.8286-2.197 3.0633-4.508 3.6539-5.597 1.4305-0.37701-0.7689 0-1.0663 0.83801-0.6609 2.147 1.0398 8.329-5.7935 6.287-6.9499-0.84-0.4759-0.267-0.4683 1.275 0.0168l2.802 0.8821-2.211-3.1227-2.212-3.1227 3.333 0.8217c1.833 0.4519 2.702 0.4466 1.931-0.011799s-1.401-3.3263-1.401-6.373c0-4.8081-0.33301-5.5366-2.522-5.5178-1.388 0.011902-3.279 0.6386-4.204 1.3927-1.403 1.1438-1.321 1.3746 0.49402 1.3927 2.154 0.0214 2.154 0.042599 0 2.0982-2.147 2.0489-2.146 2.0773 0.06601 2.1431 1.862 0.055302 1.957 0.2994 0.56097 1.4377-1.468 1.1969-1.471 1.3737-0.023987 1.3926 1.235 0.016197 1.034 0.8343-0.78799 3.2039-1.345 1.7503-3.517 4.6635-4.827 6.4739s-2.992 2.9965-3.737 2.6358c-0.75702-0.3668-1.354 0.4958-1.354 1.9571 0 2.4576 0.12399 2.4714 2.085 0.2325 4.049-4.6234 1.546 1.4842-2.846 6.9435-2.312 2.8741-4.204 6.5859-4.204 8.2486s-0.37802 2.728-0.841 2.3675c-0.46201-0.3606-0.841 0.8864-0.841 2.7711 0 3.158 0.116 3.2306 1.479 0.9257 0.81299-1.3756 1.821-3.1594 2.242-3.964 1.176-2.2516 11.445-11.281 16.458-14.472 7.17-4.5626 22.751-9.9885 33.071-11.517 13.569-2.0092 25.816-2.7521 25.217-1.5297-0.28101 0.5744 1.983 1.4617 5.031 1.9719 8.699 1.4558 22.237 7.5163 31.277 14.001 14.621 10.488 29.28 33.857 29.28 46.676 0 2.528 0.70801 5.872 1.573 7.43 2.04 3.675 1.348 20.845-1.011 25.095-0.926 1.667-1.683 3.986-1.683 5.153 0 4.759 3.771-5.01 6.113-15.836zm-150.52 7.121c-0.80399-1.015-1.326-1.098-1.326-0.21199 0 0.804 0.336 1.886 0.74701 2.404 0.41098 0.519 1.008 0.614 1.327 0.213 0.31799-0.40199-0.018005-1.484-0.74802-2.405zm-158.99-0.392c-0.353-1.163-1.094-1.762-1.646-1.331-1.583 1.234-1.17 3.444 0.64299 3.444 1 0 1.394-0.83 1.003-2.113zm26.498-5.124c0-0.88301 0.98801-1.253 2.243-0.839 1.234 0.407 1.995 0.233 1.691-0.388-0.304-0.62 2.89-3.708 7.097-6.861s8.351-6.8 9.209-8.105c0.957-1.454 0.026993-1.074-2.405 0.983-2.18 1.844-7.569 5.532-11.975 8.196-7.604 4.595-11.096 8.594-7.507 8.594 0.90601 0 1.647-0.711 1.647-1.58zm-7.106-6.714c0.388-3.21-0.38699-3.159-3.878 0.257-1.191 1.166-1.191 1.632 0 2.585 2.143 1.713 3.442 0.76001 3.878-2.842zm11.095-3.701c1.881-1.811 1.948-2.284 0.495-3.485-0.92499-0.76399-1.43-1.589-1.121-1.832 0.308-0.24399-1.71-2.972-4.484-6.063-2.775-3.09-5.38-6.205-5.79-6.922-1.125-1.966-6.542 3.089-6.542 6.105 0 1.927 1.106 2.839 4.204 3.468 5.308 1.078 9.249 4.518 9.249 8.075 0 3.291 1.067 3.466 3.989 0.65399zm-20.128-7.423c-0.37201-0.47-0.63701 0.365-0.589 1.856 0.054001 1.648 0.31999 1.983 0.67799 0.85501 0.324-1.021 0.284-2.241-0.088989-2.711zm32.46-6.793c-2.206-2.104-3.99-2.696-3.99-1.323 0 0.687 4.281 3.25 5.605 3.355 0.30899 0.025002-0.418-0.889-1.615-2.032zm16.921-0.908c-0.914-0.646-3.597-0.617-5.962 0.063995-4.253 1.225-4.235 1.238 1.663 1.174 3.771-0.041 5.351-0.496 4.299-1.238zm264.3-0.612c0.97601-0.472 1.774-2.063 1.774-3.536s0.534-2.677 1.187-2.677c0.65302 0 0.875-0.637 0.49402-1.415-1-2.041-6.798-1.74-8.223 0.427-1.518 2.308-0.422 8.059 1.536 8.059 0.80301 0 2.257-0.38599 3.232-0.85799zm7.846-1.466c0.38901-1.278 0.45499-2.641 0.147-3.03-0.716-0.903-3.977 2.47-3.977 4.113 0 2.197 3.099 1.321 3.83-1.083zm-294.18-2.461c0-2.144 3.327-3.651 8.128-3.681 1.695-0.011002 3.083-0.656 3.083-1.434s-1.136-1.423-2.523-1.434c-1.387-0.009995-3.687-0.41299-5.111-0.894-2.016-0.681-2.727-0.208-3.213 2.141-0.893 4.309-4.632 3.887-5.529-0.624-0.513-2.578-1.073-3.199-1.92-2.131-0.847 1.069-0.254 2.749 2.033 5.761 3.52 4.636 5.052 5.332 5.052 2.296zm26.518-1.64c0.96901-3.186-0.016998-3.773-4.543-2.702-5.381 1.274-5.44 4.884-0.078995 4.884 2.534 0 4.197-0.785 4.622-2.182zm10.832-7.175c-0.521-1.714-0.86299-1.796-1.559-0.376-1.05 2.146-0.19801 4.462 1.232 3.347 0.547-0.427 0.694-1.764 0.327-2.971zm-21.375 1.349c-0.771-0.392-2.032-0.392-2.803 0-0.77 0.39201-0.14 0.713 1.402 0.713 1.541 0 2.172-0.321 1.401-0.713zm13.641 0.078c1.761-0.852 2.543-4.84 0.933-4.754-1.588 0.084999-4.73 3.771-4 4.692 0.89099 1.123 0.875 1.123 3.067 0.061996zm-30.176-10.456c0.38101-0.7779 0.188-1.4144-0.429-1.4144-0.616 0-1.432 0.6365-1.814 1.4144-0.381 0.7778-0.188 1.4143 0.429 1.4143 0.616 0 1.432-0.6365 1.814-1.4143zm103.7-46.049c0-0.343-0.504-0.6237-1.121-0.6237-0.616 0-1.121 0.674-1.121 1.4978s0.505 1.1044 1.121 0.6237c0.617-0.4808 1.121-1.1548 1.121-1.4978zm60.747-0.1755c-0.80899-0.4086-1.776-0.3583-2.149 0.1116-0.37201 0.47 0.28998 0.8043 1.472 0.7429 1.306-0.067898 1.571-0.403 0.677-0.8545zm-5.535-8.2077c0.15399-0.7672-0.729-1.5516-1.962-1.7429-1.233-0.1914-1.608 0.013302-0.83398 0.455 0.77499 0.4416 1.083 1.4676 0.685 2.28-0.39801 0.8124-0.14902 1.2353 0.55301 0.9399 0.70297-0.2953 1.404-1.1647 1.558-1.932zm-7.848-0.2489c-0.77002-0.3923-2.032-0.3923-2.802 0-0.771 0.3924-0.14002 0.7134 1.401 0.7134 1.542 0 2.172-0.321 1.401-0.7134zm-208.57 202.9c-2.036-2.569-1.634-7.778 0.658-8.534 5.542-1.828 9.574 5.542 4.797 8.767-2.797 1.888-3.808 1.845-5.455-0.23299zm253.29-24.432c0.293-0.369 5.043-0.968 10.557-1.33 6.295-0.41299 8.773-0.226 6.661 0.504-3.608 1.247-18.103 1.943-17.218 0.826zm28.709-0.265c0.771-0.393 2.032-0.393 2.803 0 0.76999 0.392 0.13998 0.713-1.402 0.713-1.541 0-2.172-0.321-1.401-0.713zm-6.748-2.82c0.759-0.38699 2.273-0.411 3.363-0.051987 1.091 0.35799 0.47 0.67499-1.38 0.704-1.849 0.028992-2.742-0.265-1.983-0.65201zm17.421 0.073c0.37302-0.47 1.34-0.52 2.149-0.11101 0.89398 0.451 0.629 0.786-0.677 0.854-1.182 0.061005-1.844-0.27301-1.472-0.743zm-8.992-1.535c1.079-0.355 1.97-1.713 1.979-3.018 0.015015-2.048 0.16602-2.082 1.104-0.25 1.738 3.393 1.324 4.254-1.961 4.079-1.897-0.10101-2.329-0.41301-1.122-0.811zm-3.554-2.443c-0.049011-1.491 0.216-2.326 0.58798-1.856 0.37302 0.46999 0.41302 1.69 0.08902 2.711-0.358 1.128-0.62399 0.793-0.677-0.85501zm-182.42-1.538c-0.356-1.171-2.319-3.129-4.362-4.353-5.863-3.51-6.29-8.657-0.972-11.714 3.927-2.257 5.321-2.031 8.81 1.432 2.401 2.382 2.93 3.863 2.454 6.865-0.334 2.105-0.072998 4.502 0.58 5.325 0.653 0.824 0.84801 2.189 0.43401 3.035-1.122 2.29-6.199 1.859-6.944-0.59zm0.718-10.774c0-1.706-3.07-1.57-3.924 0.173-1.212 2.473 0.58501 4.563 2.342 2.724 0.87-0.911 1.582-2.215 1.582-2.897zm109.86 11.48c-1.287-1.056-0.95902-1.31 1.401-1.085 1.696 0.162 3.083 0.793 3.083 1.401 0 1.523-2.452 1.35-4.484-0.31601zm-195.81-9.115c1.698-1.624 1.827-2.487 0.75-5.026-0.715-1.686-1.018-3.422-0.673-3.857 0.345-0.43599 1.059 0.68301 1.588 2.484 0.659 2.248 1.225 2.735 1.805 1.552 0.464-0.948 0.563-2.648 0.21901-3.778-0.75401-2.48 1.688-2.725 3.565-0.356 3.375 4.257-0.644 11.079-6.471 10.987-2.655-0.042007-2.705-0.168-0.783-2.006zm281.1 0.055c-0.897-1.364-0.94-2.285-0.13699-2.912 0.647-0.504 1.176-0.243 1.176 0.58101 0 0.824 0.75601 1.498 1.681 1.498 0.92502 0 1.682 0.636 1.682 1.414 0 2.096-2.892 1.714-4.402-0.58101zm-9.352-3.175c0.759-0.38699 2.272-0.411 3.363-0.051987 1.091 0.35799 0.47 0.67499-1.38 0.704-1.85 0.028992-2.742-0.265-1.983-0.65201zm-282.62-4.892c0.51201-3.994-0.050995-5.843-3.398-11.152-5.092-8.077-5.24-13.568-0.638-23.69 1.856-4.084 3.835-7.426 4.398-7.426 0.56201 0 1.343-1.273 1.734-2.828 0.392-1.556 1.147-2.829 1.679-2.829s-0.259 3.806-1.757 8.458-2.724 9.92-2.724 11.707c0 4.44 2.866 9.248 5.838 9.793 4.664 0.855 8.53 15.301 4.096 15.301-0.62 0-1.887 0.96001-2.818 2.134-0.92999 1.174-2.232 1.713-2.893 1.198-0.65999-0.51399-1.86 0.20201-2.666 1.593-1.286 2.219-1.39 1.942-0.851-2.259zm282.1 0.722c0.37198-0.47 1.339-0.51999 2.148-0.11099 0.89502 0.451 0.629 0.786-0.677 0.854-1.182 0.060989-1.844-0.27301-1.471-0.74301zm-57.477-3.462c-1.205-1.036-0.41098-1.177 2.802-0.498 5.562 1.174 6.457 1.993 2.149 1.964-1.798-0.011993-4.026-0.672-4.951-1.466zm-170.89-2.607c-0.34099-0.696 0.166-1.646 1.126-2.111 0.95999-0.465 1.432-1.487 1.048-2.27-0.38301-0.783 0.11899-1.424 1.117-1.424 0.99701 0 1.531-0.577 1.186-1.282-0.34599-0.705-1.637-0.949-2.869-0.54201-1.339 0.442-2.241 0.042999-2.241-0.991 0-0.952-0.633-1.424-1.407-1.05-0.774 0.375-2.003-0.12199-2.73-1.104-1.04-1.405-0.655-1.955 1.801-2.574 5.671-1.431 12.425 3.052 12.425 8.247 0 4.338-7.775 8.532-9.456 5.101zm85.461-24.697c-1.292-1.238-1.692-2.937-1.24-5.258 1.071-5.489 2.582-6.966 7.131-6.966 3.536 0 4.352-0.546 4.755-3.182 0.45502-2.981 0.495-2.958 0.638 0.367 0.084015 1.952 1.181 4.36 2.438 5.35s1.984 2.416 1.616 3.169c-0.36902 0.752 0.242 1.371 1.358 1.375 1.597 0.005997 1.313 0.746-1.336 3.485-3.367 3.482-10.649 4.963-10.649 2.165 0-0.778 0.504-1.414 1.121-1.414 0.616 0 1.121-0.955 1.121-2.122 0-1.166 0.75601-2.121 1.681-2.121 2.392 0 2.085-2.476-0.431-3.484-5.021-2.011-9.088 3.509-6.477 8.788 1.093 2.209 0.69998 2.174-1.726-0.15199zm-0.883-19.985c-3.451-5.245 3.375-8.978 7.319-4.003 1.768 2.23 1.759 2.497-0.134 4.243-2.661 2.456-5.474 2.362-7.185-0.23999zm-127.85-5.613c0.746-1.133 0.98201-2.822 0.52501-3.754-0.52501-1.072-0.355-1.324 0.464-0.686 0.74599 0.582 1.294 0.158 1.294-1.001 0-1.106 1.514-4.413 3.363-7.35 1.85-2.936 3.371-4.774 3.381-4.084 0.009003 0.691 0.509 0.301 1.11-0.866 0.84-1.631 1.04-1.24 0.864 1.691-0.138 2.31-1.224 4.484-2.755 5.518-1.39 0.938-3.811 4.155-5.382 7.149-1.57 2.993-3.161 5.443-3.537 5.443-0.375 0-0.072006-0.92699 0.67299-2.06zm91.967-15.811c0-0.494 1.339-2.464 2.976-4.378 2.399-2.805 2.67-3.723 1.401-4.737-2.198-1.756-4.811-1.603-6.376 0.373-0.73 0.92-1.603 1.325-1.941 0.898-1.275-1.608 5.315-5.627 7.891-4.811 5.597 1.772 8.212 8.715 3.616 9.599-1.387 0.267-2.396 1.266-2.242 2.22 0.162 1.002-0.90401 1.735-2.522 1.735-1.542 0-2.803-0.405-2.803-0.899zm3.363-36.649c0-0.4262 1.342-2.2313 2.982-4.0113 3.015-3.2721 2.809-7.4639-0.293-5.962-0.862 0.4176-1.568 0.1427-1.568-0.6107 0-2.2008 5.282-1.576 7.207 0.8525 2.188 2.7611 2.19 3.4482 0.016006 7.3632-1.131 2.0376-2.906 3.1433-5.044 3.1433-1.815 0-3.3-0.3487-3.3-0.775zm6.726-2.8443c0-0.343-0.504-0.6237-1.121-0.6237-0.61601 0-1.121 0.674-1.121 1.4979 0 0.8237 0.50499 1.1044 1.121 0.6236 0.61699-0.4807 1.121-1.1547 1.121-1.4978zm22.007-20.22c-2.293-3.1975-1.341-7.0796 1.939-7.9024 7.314-1.8348 10.155-2.1246 8.617-0.8789-1.217 0.9866-0.298 1.7425 3.644 2.9946 3.752 1.192 5.272 2.3841 5.272 4.1342 0 1.9709-1.369 2.6398-6.891 3.368-9.818 1.2947-10.487 1.2036-12.581-1.7155zm5.341-1.8592c-0.56601-1.1549-0.16199-1.3432 1.335-0.6234 1.548 0.7438 1.808 0.6008 0.93201-0.5132-1.31-1.6665-4.952-0.5425-4.952 1.5282 0 0.6947 0.78699 1.2631 1.748 1.2631 1.049 0 1.424-0.6617 0.93701-1.6547zm-21.182-15.317c0.38101-0.7778 1.546-1.4045 2.589-1.3926 1.633 0.0186 1.663 0.2111 0.21399 1.3926-2.196 1.79-3.68 1.79-2.803 0zm7.567-2.4273c1.696-0.3241 4.47-0.3241 6.166 0 1.695 0.324 0.30801 0.5892-3.083 0.5892s-4.778-0.2652-3.083-0.5892z"/>
 </g>
</svg>
